<svg width="64" height="64" viewBox="0 0 64 64" fill="none" xmlns="http://www.w3.org/2000/svg">
<rect x="0.75" y="0.75" width="62.5" height="62.5" rx="31.25" stroke="white" stroke-width="1.5"/>
<path d="M37.0077 38.1852L37.0796 37.6219L38.4311 27.035L38.4324 27.0247L38.4325 27.0247C38.4819 26.6931 38.6273 26.4001 38.8736 26.1704C39.113 25.9472 39.4204 25.8092 39.7587 25.7295C40.4122 25.5757 41.0843 25.6034 41.766 25.8C41.767 25.8002 41.7679 25.8005 41.7689 25.8008L45.7559 26.9036L45.7584 26.9043C46.3744 27.0781 46.8902 27.368 47.1844 27.8381C47.5342 28.3972 47.3751 29.0396 47.0363 29.6176L37.0077 38.1852ZM37.0077 38.1852H37.5756H41.7359H42.0226L42.1674 37.9377L47.0362 29.6179L37.0077 38.1852ZM51.2154 39.0452L51.2158 39.0449C51.6292 38.7025 51.9265 38.2898 51.9958 37.7986C52.0658 37.3024 51.8886 36.832 51.5732 36.409L51.5732 36.4089L51.5683 36.4025L47.7534 31.4549L47.3002 30.8671L46.9257 31.508L43.5999 37.1996L43.2967 37.7185L43.862 37.9223L48.0008 39.414C48.001 39.4141 48.0011 39.4141 48.0012 39.4142C49.2187 39.8574 50.3269 39.7797 51.2154 39.0452ZM22.7527 37.9341L22.8968 38.1852H23.1863H27.3486H27.9157L27.8446 37.6225L26.4931 26.9294L26.4913 26.9151L26.4887 26.9009C26.3703 26.2621 25.834 25.9187 25.219 25.7528C24.5782 25.58 23.8882 25.6046 23.1632 25.798L23.1632 25.798L23.1588 25.7992L19.1662 26.9036L19.1662 26.9035L19.1594 26.9055C18.4993 27.0983 17.9365 27.4515 17.7652 28.0777C17.618 28.6156 17.7411 29.1709 18.0309 29.7086L18.0308 29.7087L18.0374 29.7203L22.7527 37.9341ZM16.9205 39.415L16.9219 39.4145L21.0602 37.9222L21.6195 37.7205L21.3248 37.2041L18.0769 31.5124L17.7047 30.8602L17.2465 31.4551L13.3562 36.5057C13.0212 36.9267 12.8154 37.4032 12.8945 37.9082C12.9736 38.4129 13.3157 38.8074 13.7635 39.1129C14.6953 39.7484 15.77 39.8262 16.9205 39.415ZM28.8488 37.7482L28.9043 38.1852H29.3449H35.5793H36.0194L36.0752 37.7486L37.6474 25.4541C37.7425 24.8367 37.4979 24.3114 37.0068 23.9241L37.0062 23.9236C36.519 23.5407 35.8819 23.3805 35.1561 23.3805H29.7661C29.1757 23.3805 28.6164 23.5394 28.0959 23.8479C27.824 24.0089 27.591 24.213 27.439 24.4741C27.2829 24.7422 27.2309 25.039 27.2743 25.3433L28.8488 37.7482ZM15.5517 40H15.5505C14.4729 40 13.6155 39.7457 12.9455 39.2696C12.2731 38.7918 11.999 38.2683 12 37.6902V37.6893C12 37.4916 12.0345 37.2976 12.1052 37.1051C12.1784 36.9056 12.2838 36.7053 12.425 36.5043L17.0433 30.3941L17.239 30.1352L17.0822 29.8511C16.7114 29.1789 16.6769 28.5502 16.9449 27.9192C17.2017 27.3149 17.7475 26.8545 18.7049 26.5861C18.7052 26.586 18.7055 26.586 18.7057 26.5859L22.6968 25.4819L22.6968 25.482L22.7048 25.4796C23.2275 25.3256 23.762 25.2477 24.3098 25.246C24.832 25.2444 25.2793 25.3512 25.664 25.5541L26.2887 25.8836L26.3919 25.1849C26.4739 24.6301 26.7943 24.1261 27.4391 23.6762L27.4398 23.6757C28.0706 23.2339 28.8567 23 29.826 23H35.1561C36.1141 23 36.9066 23.2224 37.5564 23.6452C38.2177 24.0755 38.5704 24.5685 38.6926 25.1159L38.8514 25.8266L39.4576 25.4232C39.7284 25.243 40.0983 25.15 40.6106 25.1945C41.1753 25.2435 41.7131 25.3395 42.2248 25.4818L42.2254 25.4819L46.218 26.5863L46.2181 26.5863C47.1987 26.8574 47.7842 27.321 48.0819 27.9307C48.3774 28.5358 48.342 29.1207 47.9337 29.752L47.7436 30.0459L47.9547 30.3251L52.5756 36.4373C52.576 36.4378 52.5764 36.4383 52.5768 36.4388C52.7094 36.6175 52.8173 36.7927 52.9022 36.9642C52.969 37.099 53 37.2331 53 37.3718C53 38.0305 52.6817 38.628 51.9167 39.1716L51.9162 39.1721C51.153 39.7161 50.2134 40 49.0702 40C48.797 40 48.5411 39.9774 48.3019 39.9336L48.2982 39.933C48.0545 39.8902 47.8091 39.825 47.5617 39.7365L47.5592 39.7356L44.3133 38.594L44.2327 38.5657H44.1474H20.7508H20.6635L20.5814 38.5952L17.557 39.6844L17.557 39.6844L17.5491 39.6873C17.2552 39.7988 16.9424 39.8788 16.6097 39.9263C16.2659 39.9754 15.9133 40.0008 15.5517 40Z" fill="white" stroke="white"/>
</svg>
