<svg width="64" height="64" viewBox="0 0 64 64" fill="none" xmlns="http://www.w3.org/2000/svg">
<rect x="0.75" y="0.75" width="62.5" height="62.5" rx="31.25" stroke="white" stroke-width="1.5"/>
<path d="M22.0074 20.0526H21.2516L21.5472 20.7482L25.8419 30.8535L25.9713 31.1579H26.3021H40.0789C40.8002 31.1579 41.4337 30.8077 41.8263 30.2842L46.8761 23.5511C46.8766 23.5504 46.8772 23.5497 46.8777 23.5491C47.1643 23.1733 47.3158 22.713 47.3158 22.2368C47.3158 21.6576 47.0857 21.102 46.6761 20.6924C46.2664 20.2828 45.7109 20.0526 45.1316 20.0526H22.0074ZM26.3863 31.8421H26.0755L25.938 32.1208L24.6411 34.7482L24.615 34.8011L24.6019 34.8587L24.4335 35.5997L24.4211 35.6544V35.7105C24.4211 36.2898 24.6512 36.8454 25.0608 37.255C25.4704 37.6646 26.026 37.8947 26.6053 37.8947H44.6316V38.5789H26.6053C25.8445 38.5789 25.1149 38.2767 24.577 37.7388C24.039 37.2009 23.7368 36.4713 23.7368 35.7105V35.7101C23.7364 35.2235 23.8598 34.7447 24.0954 34.3189L24.1014 34.308L24.1069 34.2968L25.3196 31.821L25.42 31.616L25.3308 31.4058L19.2172 16.989L19.0879 16.6842H18.7568H17V16H19.5376L20.8398 19.064L20.9692 19.3684H21.3H45.1316C45.8923 19.3684 46.6219 19.6706 47.1599 20.2086C47.6978 20.7465 48 21.4761 48 22.2368C48 22.9566 47.7581 23.553 47.3561 24.0411L47.3487 24.0501L47.3417 24.0594L42.4407 30.611L42.4405 30.6109L42.4326 30.6222C41.9155 31.3548 41.0541 31.8421 40.0789 31.8421H26.3863ZM41.7632 41.2632C42.5239 41.2632 43.2535 41.5654 43.7914 42.1033C44.3294 42.6412 44.6316 43.3708 44.6316 44.1316C44.6316 44.8923 44.3294 45.6219 43.7914 46.1599C43.2535 46.6978 42.5239 47 41.7632 47C41.0024 47 40.2728 46.6978 39.7349 46.1599C39.1969 45.6219 38.8947 44.8923 38.8947 44.1316C38.8947 43.3708 39.1969 42.6412 39.7349 42.1033C40.2728 41.5654 41.0024 41.2632 41.7632 41.2632ZM41.7632 41.9474C41.1839 41.9474 40.6283 42.1775 40.2187 42.5871C39.8091 42.9967 39.5789 43.5523 39.5789 44.1316C39.5789 44.7109 39.8091 45.2664 40.2187 45.6761C40.6283 46.0857 41.1839 46.3158 41.7632 46.3158C42.3424 46.3158 42.898 46.0857 43.3076 45.6761C43.7172 45.2664 43.9474 44.7109 43.9474 44.1316C43.9474 43.5523 43.7172 42.9967 43.3076 42.5871C42.898 42.1775 42.3424 41.9474 41.7632 41.9474ZM26.6053 41.2632C27.366 41.2632 28.0956 41.5654 28.6335 42.1033C29.1715 42.6412 29.4737 43.3708 29.4737 44.1316C29.4737 44.8923 29.1715 45.6219 28.6335 46.1599C28.0956 46.6978 27.366 47 26.6053 47C25.8445 47 25.1149 46.6978 24.577 46.1599C24.039 45.6219 23.7368 44.8923 23.7368 44.1316C23.7368 43.3708 24.039 42.6412 24.577 42.1033C25.1149 41.5654 25.8445 41.2632 26.6053 41.2632ZM26.6053 41.9474C26.026 41.9474 25.4704 42.1775 25.0608 42.5871C24.6512 42.9967 24.4211 43.5523 24.4211 44.1316C24.4211 44.7109 24.6512 45.2664 25.0608 45.6761C25.4704 46.0857 26.026 46.3158 26.6053 46.3158C27.1846 46.3158 27.7401 46.0857 28.1497 45.6761C28.5594 45.2664 28.7895 44.7109 28.7895 44.1316C28.7895 43.5523 28.5594 42.9967 28.1497 42.5871C27.7401 42.1775 27.1846 41.9474 26.6053 41.9474Z" fill="black" stroke="white"/>
</svg>
