<svg width="64" height="64" viewBox="0 0 64 64" fill="none" xmlns="http://www.w3.org/2000/svg">
<rect x="0.75" y="0.75" width="62.5" height="62.5" rx="31.25" stroke="white" stroke-width="1.5"/>
<path d="M42.1428 16.5L36.9697 21.6731C36.5716 22.0711 36.2558 22.5436 36.0404 23.0636C35.8249 23.5837 35.7141 24.1411 35.7141 24.704V25.6991C35.7141 25.8399 35.6864 25.9793 35.6325 26.1093C35.5786 26.2394 35.4996 26.3576 35.4 26.4571L34.6426 27.2145M36.7855 29.3574L37.5429 28.6C37.6424 28.5004 37.7606 28.4214 37.8907 28.3675C38.0207 28.3136 38.1601 28.2859 38.3009 28.2859H39.296C39.8589 28.2859 40.4163 28.1751 40.9364 27.9596C41.4564 27.7442 41.9289 27.4284 42.3269 27.0303L47.5 21.8572M44.8214 19.1786L39.4641 24.5359M28.7496 39.0004L22.0718 45.7157C21.5695 46.2179 20.8883 46.5 20.1781 46.5C19.4678 46.5 18.7866 46.2179 18.2843 45.7157C17.7821 45.2134 17.5 44.5322 17.5 43.822C17.5 43.1117 17.7821 42.4305 18.2843 41.9282L23.9281 36.3218" stroke="white" stroke-width="1.5" stroke-linecap="round" stroke-linejoin="round"/>
<path d="M21.2095 18L45.2865 41.8762C45.7433 42.3293 46 42.9437 46 43.5845C46 44.2252 45.7433 44.8396 45.2865 45.2927C44.8295 45.7456 44.2099 46 43.5639 46C42.9178 46 42.2982 45.7456 41.8412 45.2927L35.9597 39.3598C35.5748 38.9722 35.3589 38.4502 35.3585 37.9062V37.5478C35.3585 37.2732 35.3036 37.0012 35.1968 36.7478C35.09 36.4944 34.9335 36.2645 34.7363 36.0716L33.977 35.3762C33.7192 35.1403 33.4057 34.9726 33.0654 34.8883C32.7251 34.804 32.3689 34.806 32.0295 34.8941C31.4944 35.0326 30.9321 35.0299 30.3983 34.8863C29.8646 34.7427 29.378 34.4632 28.9868 34.0756L23.4039 28.5386C20.092 25.2543 18.8732 20.2948 21.2095 18Z" stroke="white" stroke-width="1.5" stroke-linejoin="round"/>
</svg>
