<svg width="281" height="230" viewBox="0 0 281 230" fill="none" xmlns="http://www.w3.org/2000/svg">
<path d="M153.215 78.6035V229.216H48.041V78.6035H153.215Z" fill="#B3E0DC"/>
<path d="M153.215 229.216V78.6037H229.629V229.216H153.215Z" fill="#009688"/>
<mask id="mask0_538_911" style="mask-type:alpha" maskUnits="userSpaceOnUse" x="154" y="36" width="124" height="44">
<path d="M154.281 79.7389H232.413L277.781 36.6035H199.649L154.281 79.7389Z" fill="#494949"/>
</mask>
<g mask="url(#mask0_538_911)">
<path d="M151.425 81.1656C148.217 84.2156 150.041 86.692 155.495 86.692H213.862C219.316 86.692 226.349 84.2156 229.557 81.1656L263.3 49.083C266.508 46.033 264.684 43.5566 259.23 43.5566H200.863C195.409 43.5566 188.376 46.033 185.168 49.083L151.425 81.1656Z" fill="#494949"/>
</g>
<mask id="mask1_538_911" style="mask-type:alpha" maskUnits="userSpaceOnUse" x="3" y="35" width="124" height="44">
<path d="M126.719 78.9684H48.587L3.21907 35.833H81.3511L126.719 78.9684Z" fill="#494949"/>
</mask>
<g mask="url(#mask1_538_911)">
<path d="M119.077 74.985C122.285 78.035 120.461 80.5113 115.007 80.5113H56.6405C51.1863 80.5113 44.1533 78.035 40.9455 74.985L7.20234 42.9023C3.99449 39.8523 5.81839 37.376 11.2726 37.376H69.6393C75.0935 37.376 82.1265 39.8523 85.3343 42.9023L119.077 74.985Z" fill="#494949"/>
</g>
<path d="M127.83 26.7942L114.449 42.2965L101.068 26.7942L114.449 11.292L127.83 26.7942Z" fill="#B3E0DC"/>
<path d="M153.912 42.2456L147.788 49.3399L141.665 42.2456L147.788 35.1514L153.912 42.2456Z" fill="#B3E0DC"/>
<path d="M143.91 15.2085L137.786 22.3027L131.663 15.2085L137.786 8.11426L143.91 15.2085Z" fill="#B3E0DC"/>
<path d="M133.495 60.0116L125.784 68.9451L118.073 60.0116L125.784 51.0781L133.495 60.0116Z" fill="#B3E0DC"/>
<path d="M188.253 13.663L176.46 27.326L164.667 13.663L176.46 0L188.253 13.663Z" fill="#B3E0DC"/>
<path d="M92.8624 21.3881L83.1102 32.6863L73.3581 21.3881L83.1102 10.0898L92.8624 21.3881Z" fill="#B3E0DC"/>
</svg>
